<?xml version="1.0" encoding="UTF-8" standalone="no"?>
<!DOCTYPE svg PUBLIC "-//W3C//DTD SVG 1.1//EN" "http://www.w3.org/Graphics/SVG/1.1/DTD/svg11.dtd">
<svg width="100%" height="100%" viewBox="0 0 2883 512" version="1.1" xmlns="http://www.w3.org/2000/svg" xmlns:xlink="http://www.w3.org/1999/xlink" xml:space="preserve" xmlns:serif="http://www.serif.com/" style="fill-rule:evenodd;clip-rule:evenodd;stroke-linejoin:round;stroke-miterlimit:2;">
    <g transform="matrix(1,0,0,1,-44,-44)">
        <g transform="matrix(1,0,0,1,44,44)">
            <path d="M448,256C448,349.03 381.48,426.8 293.5,444.3C288.3,460.3 273.7,472 256,472C238.3,472 223.71,460.26 218.47,444.26C145.51,429.74 88.37,373.71 69.77,301.96C52.77,297.3 40,282.5 40,264C40,246.71 51.11,232.31 66.47,226.73C80.64,134.7 160.1,64 256,64C300.3,64 340.91,79.34 373.4,104.67L418.92,59.15C374.6,22.38 318,0 256,0C114.6,0 0,114.6 0,256C0,397.4 114.6,512 256,512C397.4,512 512,397.4 512,256L448,256ZM101.9,296.6C117.12,354.36 163.31,399.4 222,412.2C228.9,400.3 241.3,392 256,392C270.7,392 283.07,400.346 290.01,412.2C362,396.6 416,332.7 416,256L352,256C352,308.94 308.94,352 256,352C203.07,352 160,308.94 160,256C160,203.06 203.07,160 256,160C273.75,160 290.07,165.289 304.3,173.76L350.57,127.49C324.1,107.8 291.5,96 256,96C176.8,96 111.5,153.7 98.7,229.3C111.2,236 120,248.8 120,264C120,277.8 112.5,289.4 101.9,296.6Z" style="fill:rgb(223,229,241);fill-rule:nonzero;"/>
        </g>
        <g transform="matrix(1,0,0,1,44,44)">
            <path d="M504.1,40.97L314.1,230.97C318.2,238.7 320,247.1 320,256C320,291.35 291.35,320 256,320C220.65,320 192,291.3 192,256C192,220.65 220.65,192 256,192C264.869,192 273.31,193.811 280.99,197.072L470.99,7.072C480.365,-2.303 495.55,-2.303 504.93,7.072C514.31,16.447 514.3,31.59 504.1,40.97Z" style="fill:rgb(145,168,208);fill-rule:nonzero;"/>
        </g>
        <g transform="matrix(1,0,0,1,44,44)">
            <g transform="matrix(1,0,0,1,-109.166,-53.4319)">
                <text x="735.691px" y="461.052px" style="font-family:'Overpass-Black', 'Overpass';font-weight:900;font-size:420px;fill:rgb(102,134,190);">HOL<tspan x="1578.63px 1881.03px 2143.11px " y="461.052px 461.052px 461.052px ">OCO</tspan>RE</text>
            </g>
        </g>
    </g>
</svg>
